<?xml version="1.0" encoding="UTF-8" standalone="no"?>
<!DOCTYPE svg PUBLIC "-//W3C//DTD SVG 1.1//EN" "http://www.w3.org/Graphics/SVG/1.1/DTD/svg11.dtd">
<svg width="100%" height="100%" viewBox="0 0 375 375" version="1.1" xmlns="http://www.w3.org/2000/svg" xmlns:xlink="http://www.w3.org/1999/xlink" xml:space="preserve" xmlns:serif="http://www.serif.com/" style="fill-rule:evenodd;clip-rule:evenodd;stroke-linecap:round;stroke-linejoin:round;stroke-miterlimit:1.5;">
    <g id="Artboard1" transform="matrix(0.837286,0,0,0.784166,-810.404,-842.9)">
        <rect x="967.893" y="1074.9" width="447.875" height="478.215" style="fill:none;"/>
        <g transform="matrix(0.33176,0,0,1.27524,967.893,1074.9)">
            <rect x="0" y="0" width="1350" height="375" style="fill:rgb(7,11,16);"/>
        </g>
        <g transform="matrix(1.19433,0,0,1.27524,-185.95,-294.014)">
            <g transform="matrix(1.20722,0,0,1.20722,821.579,382.371)">
                <path d="M275.026,602.508L383.511,665.141L383.511,790.408L275.026,853.041L166.542,790.408L166.542,665.141L275.026,602.508Z" style="fill:none;stroke:white;stroke-width:10.35px;"/>
            </g>
            <g transform="matrix(1.04548,0,0,1.04548,866.061,500.079)">
                <path d="M275.026,602.508L383.511,665.141L383.511,790.408L275.026,853.041L166.542,790.408L166.542,665.141L275.026,602.508Z" style="fill:none;"/>
                <clipPath id="_clip1">
                    <path d="M275.026,602.508L383.511,665.141L383.511,790.408L275.026,853.041L166.542,790.408L166.542,665.141L275.026,602.508Z"/>
                </clipPath>
                <g clip-path="url(#_clip1)">
                    <g id="Contour">
                        <g transform="matrix(0.956494,0,0,0.956494,93.3474,548.432)">
                            <path d="M316.724,140.329C307.349,141.511 299.916,142.524 293.835,150.126C287.754,157.727 279.167,172.978 277.45,179.772C272.7,198.556 295.524,180.279 299.916,186.022C304.308,191.765 301.435,198.354 303.21,202.914C304.138,205.298 306.673,209.924 314.612,209.755" style="fill:none;stroke:rgb(147,149,152);stroke-width:1.25px;"/>
                        </g>
                        <g transform="matrix(0.956494,0,0,0.956494,93.3474,548.432)">
                            <path d="M237.077,226.648C240.287,232.729 244.932,230.026 248.648,221.411C252.365,212.796 252.196,208.404 248.057,208.742C243.919,209.08 233.868,220.566 237.077,226.648Z" style="fill:none;stroke:rgb(147,149,152);stroke-width:1.25px;"/>
                        </g>
                        <g transform="matrix(0.956494,0,0,0.956494,93.3474,548.432)">
                            <path d="M94.874,99.199C100.978,114.046 111.235,113.594 118.299,125.098C124.073,134.501 125.051,143.434 131.496,147.204C136.658,150.222 144.369,148.924 150.962,145.059C155.746,142.255 157.725,137.141 162.344,136.646C167.289,136.116 173.951,141.308 176.861,152.152C178.675,158.916 177.168,174.462 185.109,180.031C197.811,188.939 215.132,169.803 222.391,169.308C229.649,168.814 234.763,170.958 240.866,163.205C246.97,155.452 247.135,136.151 258.682,125.923C270.23,115.696 274.684,106.623 288.871,101.344" style="fill:none;stroke:rgb(147,149,152);stroke-width:1.25px;"/>
                        </g>
                        <g transform="matrix(0.956494,0,0,0.956494,93.3474,548.432)">
                            <path d="M115.495,86.332C121.433,95.075 121.763,101.839 128.197,107.283C134.63,112.726 155.416,101.344 166.468,105.138C177.521,108.932 183.294,114.706 185.439,122.789C187.583,130.872 186.594,150.833 193.687,158.421C200.78,166.009 218.263,151.965 221.236,144.234C225.36,133.512 223.38,112.726 233.443,113.056C240.203,113.278 245.895,111.097 253.074,106.128C261.652,100.189 264.786,93.921 268.745,89.796" style="fill:none;stroke:rgb(147,149,152);stroke-width:1.25px;"/>
                        </g>
                        <g transform="matrix(0.956494,0,0,0.956494,93.3474,548.432)">
                            <path d="M67.647,202.864C74.615,203.603 75.882,204.025 78.944,205.715C82.006,207.404 87.707,211.838 92.986,213.316C98.265,214.794 106.394,214.055 114.207,218.384C122.019,222.712 132.26,233.376 133.316,245.834C134.372,258.291 125.849,268.353 120.436,273.283C114.523,278.668 113.045,281.835 110.195,285.636" style="fill:none;stroke:rgb(147,149,152);stroke-width:1.25px;"/>
                        </g>
                        <g transform="matrix(0.956494,0,0,0.956494,93.3474,548.432)">
                            <path d="M69.759,229.786C77.255,230.314 87.812,229.258 93.619,229.364C99.426,229.469 111.462,231.264 113.256,241.083C115.051,250.901 112.94,256.18 107.238,261.564C101.537,266.949 96.786,271.277 94.358,275.289" style="fill:none;stroke:rgb(147,149,152);stroke-width:1.25px;"/>
                        </g>
                        <g transform="matrix(0.956494,0,0,0.956494,93.3474,548.432)">
                            <path d="M68.598,140.891C74.721,144.058 82.217,149.231 87.179,155.46C92.483,162.118 94.992,173.831 101.537,179.848C108.083,185.866 120.963,188.717 130.465,190.195C139.967,191.673 142.29,201.492 148.519,210.36C154.748,219.228 167.311,221.234 171.957,232.636C175.383,241.047 175.652,248.79 171.112,257.552C166.572,266.315 155.592,278.034 148.308,284.58C141.023,291.126 137.539,297.777 136.589,299.889" style="fill:none;stroke:rgb(147,149,152);stroke-width:1.25px;"/>
                        </g>
                        <g transform="matrix(0.956494,0,0,0.956494,93.3474,548.432)">
                            <path d="M76.727,106.684C79.155,115.975 83.906,125.899 90.98,131.917C98.053,137.935 101.326,145.325 105.444,155.249C109.561,165.173 113.995,171.613 126.665,175.837C139.334,180.06 144.401,179.215 150.63,187.872C156.859,196.529 156.331,201.069 162.455,205.715C168.578,210.36 182.514,214.794 186.737,225.668C192.299,239.99 191.706,256.546 187.582,263.359C182.725,271.383 169.996,279.47 160.554,288.275C151.158,297.038 151.053,301.367 148.519,306.962" style="fill:none;stroke:rgb(147,149,152);stroke-width:1.25px;"/>
                        </g>
                        <g transform="matrix(0.956494,0,0,0.956494,66.0504,535.651)">
                            <path d="M228.124,79.77C235.909,86.039 246.537,87.878 245.692,94.973C244.848,102.068 238.513,103.081 233.783,102.068C229.053,101.054 224.493,96.662 219.594,94.973C214.695,93.284 206.925,92.693 201.857,88.047C196.789,83.402 197.043,76.645 204.222,73.773C211.401,70.902 218.58,72.084 228.124,79.77Z" style="fill:none;stroke:rgb(147,149,152);stroke-width:1.25px;"/>
                        </g>
                        <g transform="matrix(0.956494,0,0,0.956494,93.3474,548.432)">
                            <path d="M185.809,330.534C193.664,323.947 197.972,316.683 202.279,313.136C206.587,309.588 210.472,304.521 219.256,300.213C228.04,295.906 226.773,288.473 234.459,284.503C242.145,280.534 249.577,281.294 254.814,278.591C260.051,275.888 264.358,269.216 271.368,267.696C278.379,266.175 287.838,269.3 295.693,266.006C303.548,262.712 309.798,254.435 314.274,252.83" style="fill:none;stroke:rgb(147,149,152);stroke-width:1.25px;"/>
                        </g>
                        <g transform="matrix(0.956494,0,0,0.956494,93.3474,548.432)">
                            <path d="M314.697,123.605C305.237,126.308 295.693,128.166 291.723,131.038C287.754,133.909 280.49,142.187 277.196,153.335C273.902,164.484 269.426,176.731 261.486,188.978C255.585,198.082 240.371,201.478 235.641,205.194C232.986,207.281 224.117,210.497 224.226,220.232C224.311,227.834 232.442,241.883 236.402,246.242C244.763,255.449 254.138,230.702 256.25,227.323C258.361,223.945 262.331,217.948 268.497,214.823C274.662,211.698 275.246,205.208 288.429,199.536C297.749,195.526 295.416,219.19 288.413,227.077C283.9,232.16 274.507,234.546 278.97,245.989C282.349,254.655 296.089,242.503 303.2,232.755C313.66,218.417 327.315,241.668 321.96,228.759" style="fill:none;stroke:rgb(147,149,152);stroke-width:1.25px;"/>
                        </g>
                        <g transform="matrix(0.956494,0,0,0.956494,93.3474,548.432)">
                            <path d="M135.29,74.455C142.054,81.713 146.178,84.848 150.962,86.992C160.746,91.378 169.273,84.848 178.346,91.776C187.418,98.704 195.667,114.706 206.059,118.665C216.452,122.624 215.462,104.148 224.04,98.21C232.618,92.271 240.207,80.559 243.506,75.775" style="fill:none;stroke:rgb(147,149,152);stroke-width:1.25px;"/>
                        </g>
                        <g transform="matrix(0.956494,0,0,0.956494,93.3474,548.432)">
                            <path d="M314.611,154.845C304.687,155.9 301.203,159.173 298.775,165.508C296.347,171.842 302.892,173.004 306.799,177.966C310.705,182.928 311.127,185.251 314.4,189.262" style="fill:none;stroke:rgb(147,149,152);stroke-width:1.25px;"/>
                        </g>
                        <g transform="matrix(0.956494,0,0,0.956494,93.3474,548.432)">
                            <path d="M68.492,172.353C72.61,172.986 75.46,171.93 80.528,176.998C85.595,182.066 88.298,189.987 94.041,193.784C107.133,202.442 111.884,198.747 121.597,203.286C131.31,207.826 132.26,214.689 138.7,221.023C145.14,227.358 154.959,232.953 155.698,243.511C156.437,254.068 149.469,264.204 144.507,269.06C139.545,273.917 129.093,280.674 123.18,292.393" style="fill:none;stroke:rgb(147,149,152);stroke-width:1.25px;"/>
                        </g>
                    </g>
                    <g transform="matrix(1.16372,0,0,1.08283,-1174.11,-358.832)">
                        <g transform="matrix(0.821927,0,0,1.03467,1089.14,790.96)">
                            <path d="M234.338,144.301C232.882,146.752 232.847,149.295 235.091,155.91C236.914,161.284 239.116,166.442 237.254,170.075C234.259,175.919 228.693,180.927 225.832,190.752C223.252,199.614 228.993,201.091 227.059,211.551C226.789,213.01 225.513,213.768 225.299,213.895C225.285,213.903 222.116,214.494 222.109,214.489C219.121,212.848 218.123,212.884 218.767,209.902C220.73,200.815 213.729,198.273 222.282,183.731C226.335,176.84 232.082,171.945 234.187,168.544C235.798,165.942 234.12,159.987 233.256,155.31C232.01,148.565 232.818,146.233 234.338,144.301Z" style="fill:rgb(57,166,251);"/>
                        </g>
                        <g transform="matrix(0.821927,0,0,1.03467,1089.14,790.96)">
                            <path d="M285.15,230.244C280.713,232.858 279.305,234.635 278.508,236.326C276.792,239.968 265.092,240.915 259.823,259.677C258.528,264.285 255.886,269.052 245.666,270.994C236.486,272.739 226.299,271.746 217.367,276.242C215.859,277.002 214.398,276.67 214.147,276.613C214.131,276.61 211.55,274.923 211.549,274.916C211.072,271.887 210.379,271.229 213.52,269.759C229.107,262.466 247.646,269.93 253.874,261.409C255.51,259.171 255.96,255.893 259.592,250.431C267,239.289 276.084,238.265 277.531,235.93C278.647,234.127 280.468,232.409 285.15,230.244Z" style="fill:rgb(57,166,251);"/>
                        </g>
                        <g transform="matrix(0.821927,0,0,1.03467,1089.14,790.96)">
                            <path d="M300.937,258.925C295.66,261.965 296.451,263.319 289.82,264.798C273.688,268.396 264.665,264.654 260.684,263.897C258.532,263.487 257.222,263.49 255.288,265.411C254.163,266.53 253.877,266.207 252.236,265.753C252.228,265.751 251.512,264.555 251.51,264.54C251.422,263.588 251.612,263.594 252.375,262.896C258.001,257.756 262.721,261.83 270.902,263.482C272.879,263.882 279.206,265.186 289.563,263.77C295.999,262.891 295.608,261.363 300.937,258.925Z" style="fill:rgb(57,166,251);"/>
                        </g>
                        <g transform="matrix(0.821927,0,0,1.03467,1089.14,790.96)">
                            <path d="M186.67,314.664C185.662,315.731 184.874,316.981 183.645,317.862C183.083,318.265 179.845,320.587 174.909,320.246C174.156,320.194 169.816,319.893 166.519,316.552C163.323,313.314 163.667,309.719 163.727,309.094C163.971,306.538 164.095,306.53 165.576,304.294C175.752,288.936 197.955,283.403 206.053,273.773C208.645,270.69 208.945,268.105 208.265,263.234C206.048,247.34 192.97,236.881 197.947,223.39C204.471,205.703 232.895,205.464 241.77,197.897C249.929,190.94 263.442,166.426 269.072,155.426C269.372,154.84 269.369,154.841 269.374,154.837C269.652,154.595 269.794,154.799 270.071,154.558C270.106,154.775 270.361,154.937 270.397,155.154C270.398,155.161 266.459,166.498 261.373,178.188C251.663,200.506 246.359,203.78 245.297,204.599C234.6,212.853 212.133,216.436 211.052,227.262C210.235,235.434 224.671,245.636 227.586,265.852C229.689,280.435 217.754,290.04 212.81,293.878C203.137,301.385 190.695,307.738 186.67,314.664Z" style="fill:rgb(57,166,251);"/>
                        </g>
                        <g transform="matrix(0.821927,0,0,1.03467,1089.14,790.96)">
                            <path d="M167.22,138.492C167.256,138.751 167.5,138.967 167.535,139.225C167.553,139.354 163.712,146.36 164,153.757C164.371,163.261 170.041,168.015 167.979,176.748C165.873,185.667 159.107,193.894 170.709,203.314C179.832,210.721 190.105,206.93 201.096,216.598C205.503,220.475 208.169,225.293 208.824,226.432C208.916,226.592 208.81,226.588 208.701,226.813C208.569,227.085 207.574,229.173 205.925,231.821C205.837,231.963 205.802,232.143 205.658,232.246C205.493,232.364 205.256,232.378 205.055,232.445C204.854,232.511 204.667,232.635 204.452,232.643C204.423,232.644 201.517,231.717 197.949,230.999C197.826,230.974 197.667,231.005 197.581,230.926C197.555,230.903 196.923,229.543 195.717,227.646C189.972,218.615 184.316,218.97 175.636,215.778C174.733,215.446 166.046,212.666 160.135,204.134C150.712,190.534 162.717,179.895 163.155,172.477C163.674,163.684 155.77,156.13 166.361,138.763C166.588,138.391 166.759,138.638 167.22,138.492Z" style="fill:rgb(57,166,251);"/>
                        </g>
                        <g transform="matrix(0.821927,0,0,1.03467,1089.14,790.96)">
                            <path d="M162.425,200.026C162.053,199.954 160.28,199.534 157.954,199.482C157.871,199.48 157.779,199.511 157.706,199.479C157.487,199.381 155.899,196.262 150.002,193.661C138.847,188.741 123.688,189.271 118.164,179.065C111.501,166.752 114.201,159.987 97.585,153.686C97.45,153.635 97.277,153.628 97.179,153.533C96.965,153.327 97.132,153.25 96.92,153.047C97.128,153.026 97.284,152.848 97.492,152.827C97.63,152.813 99.763,153.492 99.959,153.554C116.144,158.705 115.017,166.681 122.529,177.472C129.28,187.169 153.093,181.34 164.592,195.234C164.656,195.311 164.756,195.374 164.782,195.467C164.782,195.467 164.625,196.178 164.369,196.967C163.868,198.512 163.247,199.649 163.224,199.7C163.106,199.964 163.295,200.051 163.015,200.206C162.212,200.653 162.052,200.353 161.249,200.8L162.425,200.026Z" style="fill:rgb(57,166,251);"/>
                        </g>
                    </g>
                </g>
            </g>
        </g>
    </g>
</svg>
